<svg width="800" height="650" viewBox="0 0 800 650" fill="none" xmlns="http://www.w3.org/2000/svg">
<path d="M0 111.277C0 49.8204 49.7031 0 111.015 0H278.417V247.283C278.417 278.498 253.172 303.804 222.03 303.804H0V111.277Z" fill="#3277F6"/>
<path d="M599.13 111.277C599.13 49.8204 549.427 0 488.116 0H320.711V194.293H599.13V111.277Z" fill="#54AFF8"/>
<path d="M800 289.672H539.202V360.324H800V289.672Z" fill="#3277F6"/>
<path d="M704.873 455.704V194.292H634.387V455.704H704.873Z" fill="#3277F6"/>
<path d="M599.13 538.722C599.13 600.178 549.427 649.999 488.116 649.999H320.711V455.706H599.13V538.722Z" fill="#54AFF8"/>
<path d="M0 538.723C0 600.179 49.7031 650 111.015 650H278.417V402.717C278.417 371.502 253.172 346.196 222.03 346.196H0V538.723Z" fill="#3277F6"/>
</svg>
