<svg width="512" height="416" viewBox="0 0 512 416" fill="none" xmlns="http://www.w3.org/2000/svg">
<path d="M0 71.2173C0 31.885 31.81 0 71.0496 0H178.187V158.261C178.187 178.239 162.03 194.435 142.099 194.435H0V71.2173Z" fill="#3277F6"/>
<path d="M383.443 71.2173C383.443 31.885 351.633 0 312.394 0H205.255V124.348H383.443V71.2173Z" fill="#54AFF8"/>
<path d="M512 185.39H345.09V230.608H512V185.39Z" fill="#3277F6"/>
<path d="M451.119 291.651V124.347H406.008V291.651H451.119Z" fill="#3277F6"/>
<path d="M383.443 344.782C383.443 384.114 351.633 416 312.394 416H205.255V291.652H383.443V344.782Z" fill="#54AFF8"/>
<path d="M0 344.783C0 384.115 31.81 416 71.0496 416H178.187V257.739C178.187 237.761 162.03 221.565 142.099 221.565H0V344.783Z" fill="#3277F6"/>
</svg>
